<svg viewBox="0 0 1200 630" xmlns="http://www.w3.org/2000/svg" role="img">
  <title>FindRE — AI-powered real estate discovery engine</title>
  <desc>Dark-themed hero image showing the FindRE interface: chat intake on the left, map with scored property markers on the right</desc>

  <!-- Background -->
  <rect width="1200" height="630" fill="#030712"/>

  <!-- Subtle grid lines -->
  <defs>
    <pattern id="grid" width="40" height="40" patternUnits="userSpaceOnUse">
      <path d="M 40 0 L 0 0 0 40" fill="none" stroke="#111827" stroke-width="1"/>
    </pattern>
    <filter id="glow">
      <feGaussianBlur stdDeviation="3" result="coloredBlur"/>
      <feMerge><feMergeNode in="coloredBlur"/><feMergeNode in="SourceGraphic"/></feMerge>
    </filter>
    <radialGradient id="mapglow" cx="65%" cy="50%" r="40%">
      <stop offset="0%" stop-color="#0ea5e9" stop-opacity="0.08"/>
      <stop offset="100%" stop-color="#030712" stop-opacity="0"/>
    </radialGradient>
  </defs>
  <rect width="1200" height="630" fill="url(#grid)"/>
  <rect width="1200" height="630" fill="url(#mapglow)"/>

  <!-- ── LEFT PANEL: App chrome + chat ── -->
  <rect x="0" y="0" width="370" height="630" fill="#111827"/>
  <rect x="370" y="0" width="1" height="630" fill="#1f2937"/>

  <!-- Header bar -->
  <rect x="0" y="0" width="1200" height="52" fill="#0f172a"/>
  <rect x="0" y="52" width="1200" height="1" fill="#1f2937"/>

  <!-- Logo -->
  <circle cx="28" cy="26" r="10" fill="#0ea5e9" opacity="0.9"/>
  <text x="44" y="31" font-family="system-ui, -apple-system, sans-serif" font-size="17" font-weight="700" fill="#f9fafb">FindRE</text>
  <text x="100" y="31" font-family="system-ui, -apple-system, sans-serif" font-size="12" fill="#6b7280">Real Estate Discovery</text>

  <!-- Status chips -->
  <rect x="850" y="14" width="120" height="24" rx="12" fill="#064e3b" stroke="#059669" stroke-width="1"/>
  <circle cx="866" cy="26" r="4" fill="#10b981"/>
  <text x="875" y="30" font-family="system-ui, sans-serif" font-size="11" fill="#6ee7b7">qwen3.6:35b</text>

  <rect x="980" y="14" width="95" height="24" rx="12" fill="#0c4a6e" stroke="#0284c7" stroke-width="1"/>
  <circle cx="996" cy="26" r="4" fill="#38bdf8"/>
  <text x="1005" y="30" font-family="system-ui, sans-serif" font-size="11" fill="#7dd3fc">Zillow Live</text>

  <rect x="1085" y="14" width="100" height="24" rx="12" fill="#1f2937" stroke="#374151" stroke-width="1"/>
  <text x="1105" y="30" font-family="system-ui, sans-serif" font-size="11" fill="#9ca3af">New Search</text>

  <!-- Chat sidebar tabs -->
  <rect x="0" y="53" width="185" height="38" fill="#111827"/>
  <rect x="185" y="53" width="185" height="38" fill="#111827"/>
  <text x="70" y="77" font-family="system-ui, sans-serif" font-size="13" font-weight="600" fill="#f9fafb" text-anchor="middle">Results (21)</text>
  <rect x="0" y="89" width="185" height="2" fill="#0ea5e9"/>
  <text x="278" y="77" font-family="system-ui, sans-serif" font-size="13" fill="#6b7280" text-anchor="middle">Refine</text>

  <!-- Category filters -->
  <rect x="8" y="98" width="355" height="34" rx="0" fill="#111827"/>
  <!-- All pill (active) -->
  <rect x="10" y="101" width="62" height="26" rx="13" fill="#1f2937" stroke="#374151" stroke-width="1"/>
  <text x="41" y="118" font-family="system-ui, sans-serif" font-size="11" fill="#e5e7eb" text-anchor="middle">All (21)</text>
  <!-- Exact pill -->
  <rect x="78" y="101" width="72" height="26" rx="13" fill="#111827"/>
  <text x="114" y="118" font-family="system-ui, sans-serif" font-size="11" fill="#6b7280" text-anchor="middle">Exact (11)</text>
  <!-- Related pill -->
  <rect x="156" y="101" width="80" height="26" rx="13" fill="#111827"/>
  <text x="196" y="118" font-family="system-ui, sans-serif" font-size="11" fill="#6b7280" text-anchor="middle">Related (9)</text>
  <!-- Gems pill -->
  <rect x="242" y="101" width="68" height="26" rx="13" fill="#111827"/>
  <text x="276" y="118" font-family="system-ui, sans-serif" font-size="11" fill="#eab308" text-anchor="middle">Gems (1)</text>

  <!-- Property card 1 -->
  <rect x="8" y="138" width="354" height="140" rx="8" fill="#1a2535" stroke="#1e3a5f" stroke-width="1"/>
  <text x="20" y="158" font-family="system-ui, sans-serif" font-size="13" font-weight="600" fill="#f9fafb">7003 Saranac St Unit 103</text>
  <text x="20" y="173" font-family="system-ui, sans-serif" font-size="11" fill="#6b7280">San Diego, CA 92115</text>
  <rect x="268" y="143" width="84" height="22" rx="11" fill="#14532d"/>
  <text x="310" y="158" font-family="system-ui, sans-serif" font-size="10" fill="#86efac" text-anchor="middle">Exact Match</text>

  <text x="20" y="196" font-family="system-ui, sans-serif" font-size="18" font-weight="700" fill="#f9fafb">$450k</text>
  <text x="90" y="196" font-family="system-ui, sans-serif" font-size="11" fill="#9ca3af">$465/sqft</text>

  <!-- Score bars -->
  <text x="20" y="216" font-family="system-ui, sans-serif" font-size="10" fill="#6b7280">Match</text>
  <rect x="60" y="208" width="255" height="6" rx="3" fill="#1f2937"/>
  <rect x="60" y="208" width="255" height="6" rx="3" fill="#22c55e"/>
  <text x="322" y="216" font-family="system-ui, sans-serif" font-size="10" fill="#22c55e">100</text>

  <text x="20" y="232" font-family="system-ui, sans-serif" font-size="10" fill="#6b7280">Value</text>
  <rect x="60" y="224" width="255" height="6" rx="3" fill="#1f2937"/>
  <rect x="60" y="224" width="237" height="6" rx="3" fill="#3b82f6"/>
  <text x="322" y="232" font-family="system-ui, sans-serif" font-size="10" fill="#3b82f6">93</text>

  <text x="20" y="248" font-family="system-ui, sans-serif" font-size="10" fill="#6b7280">Opp</text>
  <rect x="60" y="240" width="255" height="6" rx="3" fill="#1f2937"/>
  <rect x="60" y="240" width="102" height="6" rx="3" fill="#f59e0b"/>
  <text x="322" y="248" font-family="system-ui, sans-serif" font-size="10" fill="#f59e0b">40</text>

  <!-- Composite badge -->
  <circle cx="36" cy="265" r="16" fill="none" stroke="#22c55e" stroke-width="2"/>
  <text x="36" y="270" font-family="system-ui, sans-serif" font-size="12" font-weight="700" fill="#22c55e" text-anchor="middle">82</text>
  <text x="58" y="270" font-family="system-ui, sans-serif" font-size="11" fill="#6b7280">composite</text>
  <text x="20" y="288" font-family="system-ui, sans-serif" font-size="10" fill="#6b7280">29% below neighborhood avg psf</text>

  <!-- Property card 2 (partial) -->
  <rect x="8" y="286" width="354" height="100" rx="8" fill="#1a2535" stroke="#1f2937" stroke-width="1"/>
  <text x="20" y="306" font-family="system-ui, sans-serif" font-size="13" font-weight="600" fill="#f9fafb">75 3rd Ave Unit 18</text>
  <text x="20" y="321" font-family="system-ui, sans-serif" font-size="11" fill="#6b7280">Chula Vista, CA 91910</text>
  <rect x="268" y="291" width="84" height="22" rx="11" fill="#14532d"/>
  <text x="310" y="306" font-family="system-ui, sans-serif" font-size="10" fill="#86efac" text-anchor="middle">Exact Match</text>
  <text x="20" y="344" font-family="system-ui, sans-serif" font-size="18" font-weight="700" fill="#f9fafb">$599k</text>
  <text x="90" y="344" font-family="system-ui, sans-serif" font-size="11" fill="#9ca3af">$395/sqft</text>

  <!-- Card 3 stub -->
  <rect x="8" y="394" width="354" height="80" rx="8" fill="#1a2535" stroke="#1f2937" stroke-width="1" opacity="0.7"/>
  <text x="20" y="415" font-family="system-ui, sans-serif" font-size="13" font-weight="600" fill="#d1d5db">2863 Carmar Way</text>
  <text x="20" y="430" font-family="system-ui, sans-serif" font-size="11" fill="#6b7280">San Diego, CA 92139</text>
  <text x="20" y="455" font-family="system-ui, sans-serif" font-size="18" font-weight="700" fill="#d1d5db">$900k</text>

  <!-- Weights bar -->
  <rect x="0" y="576" width="370" height="54" fill="#0f172a" stroke="#1f2937" stroke-width="0"/>
  <rect x="0" y="576" width="370" height="1" fill="#1f2937"/>
  <text x="20" y="598" font-family="system-ui, sans-serif" font-size="11" fill="#9ca3af">⇄  Weights · 40/35/25</text>

  <!-- ── RIGHT PANEL: Map ── -->
  <!-- Dark map background -->
  <rect x="371" y="53" width="829" height="577" fill="#0f1923"/>

  <!-- Map roads (simplified) -->
  <line x1="371" y1="280" x2="1200" y2="260" stroke="#1e2d3d" stroke-width="2"/>
  <line x1="371" y1="350" x2="1200" y2="340" stroke="#1e2d3d" stroke-width="2"/>
  <line x1="600" y1="53" x2="620" y2="630" stroke="#1e2d3d" stroke-width="2"/>
  <line x1="780" y1="53" x2="800" y2="630" stroke="#1e2d3d" stroke-width="1.5"/>
  <line x1="960" y1="53" x2="970" y2="630" stroke="#1e2d3d" stroke-width="1"/>
  <line x1="371" y1="180" x2="1200" y2="195" stroke="#1e2d3d" stroke-width="1"/>
  <line x1="371" y1="450" x2="1200" y2="460" stroke="#1e2d3d" stroke-width="1"/>
  <!-- Curved coastal road -->
  <path d="M 560 53 Q 580 200 600 400 Q 610 520 620 630" fill="none" stroke="#243446" stroke-width="3"/>

  <!-- City labels -->
  <text x="700" y="130" font-family="system-ui, sans-serif" font-size="11" fill="#374151" text-anchor="middle">SAN MARCOS</text>
  <text x="870" y="160" font-family="system-ui, sans-serif" font-size="11" fill="#374151" text-anchor="middle">ESCONDIDO</text>
  <text x="650" y="240" font-family="system-ui, sans-serif" font-size="10" fill="#374151" text-anchor="middle">ENCINITAS</text>
  <text x="790" y="300" font-family="system-ui, sans-serif" font-size="11" fill="#374151" text-anchor="middle">POWAY</text>
  <text x="750" y="440" font-family="system-ui, sans-serif" font-size="14" font-weight="600" fill="#4b5563" text-anchor="middle">SAN DIEGO</text>
  <text x="820" y="530" font-family="system-ui, sans-serif" font-size="10" fill="#374151" text-anchor="middle">NATIONAL CITY</text>
  <text x="870" y="570" font-family="system-ui, sans-serif" font-size="11" fill="#374151" text-anchor="middle">CHULA VISTA</text>

  <!-- Search radius circle -->
  <circle cx="790" cy="410" r="220" fill="none" stroke="#0ea5e9" stroke-width="1.5" stroke-dasharray="8 5" opacity="0.6"/>
  <circle cx="790" cy="410" r="220" fill="#0ea5e9" fill-opacity="0.03"/>

  <!-- Property markers — green (Exact Match) -->
  <circle cx="720" cy="200" r="8" fill="#22c55e" stroke="white" stroke-width="1.5" filter="url(#glow)" opacity="0.9"/>
  <circle cx="810" cy="240" r="8" fill="#22c55e" stroke="white" stroke-width="1.5" filter="url(#glow)" opacity="0.9"/>
  <circle cx="700" cy="320" r="8" fill="#22c55e" stroke="white" stroke-width="1.5" filter="url(#glow)"/>
  <circle cx="760" cy="370" r="8" fill="#22c55e" stroke="white" stroke-width="1.5" filter="url(#glow)"/>
  <circle cx="840" cy="360" r="8" fill="#22c55e" stroke="white" stroke-width="1.5" filter="url(#glow)"/>
  <circle cx="780" cy="430" r="8" fill="#22c55e" stroke="white" stroke-width="1.5" filter="url(#glow)"/>
  <circle cx="850" cy="480" r="9" fill="#22c55e" stroke="white" stroke-width="2" filter="url(#glow)"/><!-- selected -->
  <circle cx="900" cy="540" r="8" fill="#22c55e" stroke="white" stroke-width="1.5" filter="url(#glow)"/>
  <circle cx="820" cy="580" r="8" fill="#22c55e" stroke="white" stroke-width="1.5" filter="url(#glow)"/>
  <circle cx="940" cy="390" r="8" fill="#22c55e" stroke="white" stroke-width="1.5" filter="url(#glow)"/>
  <circle cx="660" cy="440" r="8" fill="#22c55e" stroke="white" stroke-width="1.5" filter="url(#glow)"/>

  <!-- Property markers — blue (Related) -->
  <circle cx="680" cy="260" r="7" fill="#3b82f6" stroke="rgba(255,255,255,0.4)" stroke-width="1.5" opacity="0.85"/>
  <circle cx="740" cy="300" r="7" fill="#3b82f6" stroke="rgba(255,255,255,0.4)" stroke-width="1.5" opacity="0.85"/>
  <circle cx="880" cy="300" r="7" fill="#3b82f6" stroke="rgba(255,255,255,0.4)" stroke-width="1.5" opacity="0.85"/>
  <circle cx="960" cy="330" r="7" fill="#3b82f6" stroke="rgba(255,255,255,0.4)" stroke-width="1.5" opacity="0.85"/>
  <circle cx="630" cy="390" r="7" fill="#3b82f6" stroke="rgba(255,255,255,0.4)" stroke-width="1.5" opacity="0.85"/>
  <circle cx="720" cy="490" r="7" fill="#3b82f6" stroke="rgba(255,255,255,0.4)" stroke-width="1.5" opacity="0.85"/>
  <circle cx="970" cy="460" r="7" fill="#3b82f6" stroke="rgba(255,255,255,0.4)" stroke-width="1.5" opacity="0.85"/>
  <circle cx="1010" cy="390" r="7" fill="#3b82f6" stroke="rgba(255,255,255,0.4)" stroke-width="1.5" opacity="0.85"/>
  <circle cx="1050" cy="490" r="7" fill="#3b82f6" stroke="rgba(255,255,255,0.4)" stroke-width="1.5" opacity="0.85"/>

  <!-- Gem marker (amber) -->
  <circle cx="1040" cy="200" r="8" fill="#f59e0b" stroke="white" stroke-width="1.5" filter="url(#glow)" opacity="0.95"/>

  <!-- Popup for selected property -->
  <rect x="860" y="430" width="200" height="80" rx="8" fill="#1e293b" stroke="#334155" stroke-width="1" filter="url(#glow)"/>
  <text x="872" y="450" font-family="system-ui, sans-serif" font-size="11" font-weight="600" fill="#f9fafb">2863 Carmar Way</text>
  <text x="872" y="464" font-family="system-ui, sans-serif" font-size="10" fill="#6b7280">San Diego, CA</text>
  <text x="872" y="482" font-family="system-ui, sans-serif" font-size="13" font-weight="700" fill="#f9fafb">$900k</text>
  <text x="932" y="482" font-family="system-ui, sans-serif" font-size="10" fill="#6b7280">5bd/3ba</text>
  <rect x="872" y="490" width="36" height="16" rx="8" fill="#14532d"/>
  <text x="890" y="501" font-family="system-ui, sans-serif" font-size="9" fill="#86efac" text-anchor="middle">80pts</text>
  <rect x="914" y="490" width="46" height="16" rx="8" fill="#1e3a5f"/>
  <text x="937" y="501" font-family="system-ui, sans-serif" font-size="9" fill="#7dd3fc" text-anchor="middle">Exact</text>
  <!-- Popup stem -->
  <polygon points="850,480 858,470 858,490" fill="#1e293b"/>

  <!-- Map controls -->
  <rect x="385" y="67" width="32" height="32" rx="4" fill="#1f2937" stroke="#374151" stroke-width="1"/>
  <text x="401" y="87" font-family="system-ui, sans-serif" font-size="18" fill="#9ca3af" text-anchor="middle">+</text>
  <rect x="385" y="101" width="32" height="32" rx="4" fill="#1f2937" stroke="#374151" stroke-width="1"/>
  <text x="401" y="121" font-family="system-ui, sans-serif" font-size="18" fill="#9ca3af" text-anchor="middle">−</text>

  <!-- Legend -->
  <rect x="1100" y="570" width="88" height="50" rx="6" fill="#111827" stroke="#1f2937" stroke-width="1" opacity="0.9"/>
  <circle cx="1114" cy="582" r="5" fill="#22c55e"/>
  <text x="1123" y="586" font-family="system-ui, sans-serif" font-size="9" fill="#9ca3af">Exact</text>
  <circle cx="1114" cy="596" r="5" fill="#3b82f6"/>
  <text x="1123" y="600" font-family="system-ui, sans-serif" font-size="9" fill="#9ca3af">Related</text>
  <circle cx="1114" cy="610" r="5" fill="#f59e0b"/>
  <text x="1123" y="614" font-family="system-ui, sans-serif" font-size="9" fill="#9ca3af">Gem</text>

  <!-- Tagline overlay (bottom centre of map) -->
  <rect x="580" y="588" width="420" height="32" rx="4" fill="#030712" fill-opacity="0.75"/>
  <text x="790" y="609" font-family="system-ui, sans-serif" font-size="13" fill="#94a3b8" text-anchor="middle">AI-powered discovery · Zillow data · Local LLM scoring · Dark map</text>
</svg>
